<svg width="43" height="43" viewBox="0 0 43 43" fill="none" xmlns="http://www.w3.org/2000/svg">
<path fill-rule="evenodd" clip-rule="evenodd" d="M12.7461 5.19727L12.6509 5.20955L11.2073 5.39384L9.4535 5.61498C8.38486 5.74013 7.39298 6.23293 6.64774 7.00899C5.9025 7.78505 5.45027 8.79608 5.3685 9.86891C4.73133 18.7431 4.73133 27.6516 5.3685 36.5258C5.44382 37.6066 5.90319 38.6248 6.66361 39.3965C7.42404 40.1682 8.43538 40.6425 9.51493 40.7337C17.7341 41.4217 25.2591 41.4217 33.4751 40.7337C34.5547 40.6425 35.566 40.1682 36.3265 39.3965C37.0869 38.6248 37.5463 37.6066 37.6216 36.5258C38.2586 27.6516 38.2586 18.7431 37.6216 9.86891C37.5399 8.79654 37.0881 7.78588 36.3435 7.00988C35.5989 6.23389 34.6077 5.74079 33.5396 5.61498L31.7889 5.39384L30.3454 5.20955L30.2471 5.19727H12.7461Z" fill="#8D744C" fill-opacity="0.1"/>
<path d="M13.8214 5.78069C13.8206 5.25153 13.9242 4.72741 14.1262 4.23834C14.3283 3.74927 14.6248 3.30485 14.9988 2.93054C15.3728 2.55622 15.817 2.25936 16.306 2.05696C16.7949 1.85455 17.3189 1.75057 17.8481 1.75098H25.1458C26.2149 1.75098 27.2403 2.1757 27.9963 2.9317C28.7523 3.68771 29.177 4.71307 29.177 5.78223C29.177 6.85138 28.7523 7.87675 27.9963 8.63275C27.2403 9.38876 26.2149 9.81348 25.1458 9.81348H17.8511C17.3214 9.81388 16.7968 9.70985 16.3074 9.50732C15.8179 9.3048 15.3732 9.00776 14.9986 8.6332C14.6241 8.25864 14.327 7.81391 14.1245 7.32445C13.922 6.83499 13.821 6.3104 13.8214 5.78069Z" fill="#8D744C"/>
</svg>
