<svg width="35" height="35" viewBox="0 0 35 35" fill="none" xmlns="http://www.w3.org/2000/svg">
<g clip-path="url(#clip0_137_1972)">
<path d="M17.5385 35H17.4615C7.83333 35 0 27.1667 0 17.5385V17.4615C0 7.83335 7.83333 0 17.4615 0H17.5385C27.1667 0 35 7.83335 35 17.4615V17.5385C35 27.1667 27.1667 35 17.5385 35ZM17.4615 1.18471C8.48611 1.18471 1.18471 8.48612 1.18471 17.4615V17.5385C1.18471 26.5139 8.48611 33.8153 17.4615 33.8153H17.5385C26.5139 33.8153 33.8153 26.5139 33.8153 17.5385V17.4615C33.8153 8.48612 26.5139 1.18471 17.5385 1.18471H17.4615Z" fill="#8D744C"/>
<path d="M19.8546 13.5756V17.2588H24.411L23.6895 22.2204H19.8546V33.6517C19.0857 33.7584 18.2991 33.8141 17.5006 33.8141C16.5789 33.8141 15.6738 33.7406 14.7923 33.5984V22.2204H10.5902V17.2588H14.7923V12.7522C14.7923 9.95627 17.0587 7.68873 19.8558 7.68873V7.6911C19.8641 7.6911 19.8712 7.68873 19.8795 7.68873H24.4122V11.9798H21.4504C20.5702 11.9798 19.8558 12.6941 19.8558 13.5744L19.8546 13.5756Z" fill="#8D744C"/>
</g>
<defs>
<clipPath id="clip0_137_1972">
<rect width="35" height="35" fill="white"/>
</clipPath>
</defs>
</svg>
