<svg width="32" height="32" viewBox="0 0 32 32" fill="none" xmlns="http://www.w3.org/2000/svg">
<path d="M15.1327 5.11492C15.0464 5.39469 15 5.69192 15 6C15 6.55228 15.4477 7 16 7H22C22.5523 7 23 6.55228 23 6C23 5.69192 22.9536 5.39469 22.8673 5.11492M15.1327 5.11492C15.5103 3.89009 16.6512 3 18 3H20C21.3488 3 22.4897 3.89009 22.8673 5.11492M15.1327 5.11492C14.6318 5.14478 14.1325 5.18039 13.6348 5.2217C12.1267 5.34687 11 6.63098 11 8.14429V11M22.8673 5.11492C23.3682 5.14478 23.8675 5.18039 24.3652 5.2217C25.8733 5.34687 27 6.63098 27 8.14429V22C27 23.6569 25.6569 25 24 25H21M11 11H6.5C5.67157 11 5 11.6716 5 12.5V27.5C5 28.3284 5.67157 29 6.5 29H19.5C20.3284 29 21 28.3284 21 27.5V25M11 11H19.5C20.3284 11 21 11.6716 21 12.5V25M10 21L12 23L16 18" stroke="#8D744C" stroke-width="1.65082" stroke-linecap="round" stroke-linejoin="round"/>
</svg>
