<svg width="35" height="35" viewBox="0 0 35 35" fill="none" xmlns="http://www.w3.org/2000/svg">
<g clip-path="url(#clip0_137_1973)">
<path d="M17.5385 35H17.4615C7.83333 35 0 27.1667 0 17.5385V17.4615C0 7.83332 7.83333 0 17.4615 0H17.5385C27.1667 0 35 7.83332 35 17.4615V17.5385C35 27.1667 27.1667 35 17.5385 35ZM17.4615 1.18471C8.48611 1.18471 1.18471 8.48609 1.18471 17.4615V17.5385C1.18471 26.5139 8.48611 33.8153 17.4615 33.8153H17.5385C26.5139 33.8153 33.8153 26.5139 33.8153 17.5385V17.4615C33.8153 8.48609 26.5139 1.18471 17.5385 1.18471H17.4615Z" fill="#8D744C"/>
<path d="M22.7323 7.47211H12.2689C9.3782 7.47211 7.02654 9.82377 7.02654 12.7145V22.2869C7.02654 25.1776 9.3782 27.5293 12.2689 27.5293H22.7323C25.623 27.5293 27.9746 25.1776 27.9746 22.2869V12.7145C27.9746 9.82377 25.623 7.47211 22.7323 7.47211ZM8.87588 12.7145C8.87588 10.8438 10.3982 9.32143 12.2689 9.32143H22.7323C24.603 9.32143 26.1253 10.8438 26.1253 12.7145V22.2869C26.1253 24.1576 24.603 25.68 22.7323 25.68H12.2689C10.3982 25.68 8.87588 24.1576 8.87588 22.2869V12.7145Z" fill="#8D744C"/>
<path d="M17.5006 22.3758C20.1887 22.3758 22.3769 20.1888 22.3769 17.4995C22.3769 14.8102 20.1899 12.6232 17.5006 12.6232C14.8113 12.6232 12.6243 14.8102 12.6243 17.4995C12.6243 20.1888 14.8113 22.3758 17.5006 22.3758ZM17.5006 14.4738C19.1699 14.4738 20.5276 15.8314 20.5276 17.5007C20.5276 19.17 19.1699 20.5277 17.5006 20.5277C15.8314 20.5277 14.4737 19.17 14.4737 17.5007C14.4737 15.8314 15.8314 14.4738 17.5006 14.4738Z" fill="#8D744C"/>
<path d="M22.8283 13.411C23.5521 13.411 24.1421 12.8222 24.1421 12.0971C24.1421 11.3721 23.5533 10.7833 22.8283 10.7833C22.1032 10.7833 21.5144 11.3721 21.5144 12.0971C21.5144 12.8222 22.1032 13.411 22.8283 13.411Z" fill="#8D744C"/>
</g>
<defs>
<clipPath id="clip0_137_1973">
<rect width="35" height="35" fill="white"/>
</clipPath>
</defs>
</svg>
