<svg width="35" height="35" viewBox="0 0 35 35" fill="none" xmlns="http://www.w3.org/2000/svg">
<g clip-path="url(#clip0_137_1975)">
<path d="M17.5385 35H17.4615C7.83334 35 0 27.1667 0 17.5385V17.4615C0 7.83334 7.83334 0 17.4615 0H17.5385C27.1667 0 35 7.83334 35 17.4615V17.5385C35 27.1667 27.1667 35 17.5385 35ZM17.4615 1.18471C8.48612 1.18471 1.18471 8.48612 1.18471 17.4615V17.5385C1.18471 26.5139 8.48612 33.8153 17.4615 33.8153H17.5385C26.5139 33.8153 33.8153 26.5139 33.8153 17.5385V17.4615C33.8153 8.48612 26.5139 1.18471 17.5385 1.18471H17.4615Z" fill="#8D744C"/>
<path d="M8.65671 11.8319C8.21126 11.4184 7.98973 10.9066 7.98973 10.2977C7.98973 9.68872 8.21244 9.1544 8.65671 8.73975C9.10216 8.32629 9.67557 8.11896 10.3781 8.11896C11.0806 8.11896 11.6315 8.32629 12.0758 8.73975C12.5213 9.15322 12.7428 9.67332 12.7428 10.2977C12.7428 10.922 12.5201 11.4184 12.0758 11.8319C11.6304 12.2453 11.0652 12.4527 10.3781 12.4527C9.69097 12.4527 9.10216 12.2453 8.65671 11.8319ZM12.3684 14.2037V26.8801H8.36291V14.2037H12.3684Z" fill="#8D744C"/>
<path d="M25.7024 15.4559C26.5755 16.4037 27.0115 17.7045 27.0115 19.3607V26.6562H23.2074V19.8749C23.2074 19.0396 22.9906 18.3904 22.5582 17.9284C22.1257 17.4664 21.5429 17.2341 20.8131 17.2341C20.0833 17.2341 19.5004 17.4652 19.068 17.9284C18.6355 18.3904 18.4187 19.0396 18.4187 19.8749V26.6562H14.5921V14.1681H18.4187V15.8243C18.8061 15.2723 19.3286 14.8363 19.985 14.5152C20.6413 14.1942 21.3794 14.0342 22.2004 14.0342C23.6623 14.0342 24.8304 14.5081 25.7024 15.4559Z" fill="#8D744C"/>
</g>
<defs>
<clipPath id="clip0_137_1975">
<rect width="35" height="35" fill="white"/>
</clipPath>
</defs>
</svg>
