<svg width="81" height="81" viewBox="0 0 81 81" fill="none" xmlns="http://www.w3.org/2000/svg">
<path d="M30.2109 17.9905C31.226 16.1509 32.7191 14.6197 34.5325 13.5584C36.3459 12.4971 38.4122 11.9453 40.5132 11.9611C42.6142 11.9769 44.672 12.5598 46.4692 13.6483C48.2664 14.7367 49.7363 16.2903 50.7236 18.1449C51.9581 16.8539 53.5559 15.9687 55.3051 15.6066C57.0543 15.2445 58.8722 15.4227 60.5178 16.1175C62.1634 16.8123 63.5589 17.991 64.5193 19.4971C65.4796 21.0032 65.9595 22.7657 65.8952 24.5508C65.8309 26.3359 65.2255 28.0593 64.1593 29.4924C63.0931 30.9256 61.6164 32.0007 59.9251 32.5754C58.2338 33.15 56.4078 33.197 54.6892 32.71C52.9706 32.2231 51.4406 31.2252 50.3022 29.8488C49.2433 31.5312 47.772 32.9151 46.0281 33.8692C44.2841 34.8234 42.3253 35.316 40.3375 35.3006C38.3505 35.2859 36.4002 34.764 34.6715 33.7844C32.9428 32.8047 31.4929 31.3998 30.4594 29.7027C29.3001 31.0614 27.7552 32.0357 26.0295 32.4963C24.3039 32.9569 22.479 32.8822 20.7968 32.282C19.1146 31.6818 17.6545 30.5844 16.6102 29.1355C15.5659 27.6865 14.9867 25.9544 14.9493 24.1687C14.9119 22.383 15.4182 20.6282 16.4009 19.1368C17.3837 17.6454 18.7965 16.4879 20.4522 15.8178C22.1078 15.1478 23.9279 14.9967 25.6713 15.3847C27.4148 15.7728 28.9957 16.6815 30.2109 17.9905ZM32.2955 21.8063C32.6295 23.1146 32.6592 24.4822 32.3821 25.8037C32.8571 27.5623 33.895 29.1169 35.3371 30.2298C36.7792 31.3427 38.5461 31.9526 40.3676 31.9663C42.1891 31.9801 43.965 31.3968 45.4237 30.3057C46.8824 29.2147 47.9436 27.6759 48.445 25.9247C48.1874 24.5981 48.2365 23.2303 48.5884 21.9256C48.1983 20.0624 47.1824 18.3888 45.7093 17.183C44.2363 15.9772 42.395 15.3119 40.4914 15.2975C38.5879 15.2832 36.7367 15.9208 35.2457 17.1042C33.7547 18.2877 32.7136 19.9492 32.2955 21.8063ZM28.8738 22.0172C28.4122 20.8137 27.5408 19.8116 26.413 19.1873C25.2853 18.563 23.9735 18.3565 22.7085 18.6041C21.4435 18.8517 20.3063 19.5376 19.4972 20.541C18.6881 21.5444 18.2588 22.8011 18.285 24.0899C18.3111 25.3786 18.791 26.6169 19.6402 27.5866C20.4894 28.5564 21.6534 29.1956 22.9274 29.3917C24.2014 29.5878 25.5038 29.3282 26.6052 28.6586C27.7067 27.9891 28.5367 26.9525 28.9492 25.7312C28.7259 24.5052 28.7004 23.2513 28.8738 22.0172ZM51.8753 25.9005C52.2689 27.129 53.0834 28.1793 54.1752 28.8664C55.2671 29.5535 56.5663 29.8333 57.8443 29.6567C59.1222 29.48 60.2968 28.8582 61.1613 27.9007C62.0258 26.9432 62.5248 25.7114 62.5705 24.4221C62.6161 23.1329 62.2054 21.8688 61.4107 20.8526C60.6161 19.8364 59.4883 19.1331 58.2261 18.8665C56.9639 18.6 55.6481 18.7873 54.5104 19.3955C53.3727 20.0037 52.486 20.9937 52.0065 22.1914C52.161 23.4268 52.1167 24.679 51.8753 25.9005ZM16.8466 34.447C18.0055 34.1491 19.096 34.5373 19.8452 35.0896C20.1435 35.3085 20.5548 35.5783 21.0563 35.8254C21.4402 36.028 21.7298 36.3723 21.8638 36.7851C21.9977 37.1979 21.9653 37.6466 21.7735 38.036C21.5817 38.4253 21.2456 38.7244 20.8367 38.8698C20.4278 39.0152 19.9783 38.9953 19.5838 38.8144C18.9823 38.5193 18.4082 38.1714 17.8682 37.7748C17.8144 37.7358 17.7551 37.705 17.6922 37.6835L17.6689 37.68C17.2186 37.7966 16.7719 37.9266 16.3293 38.0699L14.0371 38.7993C13.1823 39.0705 12.4079 39.5491 11.783 40.1923C11.1582 40.8356 10.7022 41.6235 10.4559 42.4858L9.46116 49.3085C9.26438 50.6504 9.96678 51.6624 10.9749 51.91C11.718 52.0978 12.62 52.2824 13.6809 52.4637C13.8968 52.5003 14.1035 52.5792 14.289 52.6957C14.4745 52.8122 14.6352 52.9641 14.762 53.1427C14.8888 53.3213 14.9792 53.5232 15.028 53.7367C15.0768 53.9503 15.0831 54.1714 15.0464 54.3874C15.0098 54.6033 14.9309 54.81 14.8144 54.9955C14.6979 55.181 14.546 55.3417 14.3674 55.4685C14.1888 55.5953 13.9869 55.6857 13.7734 55.7345C13.5598 55.7833 13.3387 55.7896 13.1227 55.7529C12.1348 55.588 11.1534 55.386 10.1806 55.1474C7.20265 54.415 5.7642 51.5474 6.16136 48.827L7.18751 41.8145L7.20819 41.7247C7.58397 40.3002 8.31398 38.9939 9.3303 37.9274C10.3466 36.8609 11.6162 36.0688 13.0209 35.6249L15.3099 34.8921C15.8222 34.7293 16.3345 34.5809 16.8466 34.447ZM64.2752 34.8041C63.7615 34.6742 63.2253 34.6605 62.7055 34.7638C62.1858 34.8671 61.6956 35.085 61.2707 35.4015C60.969 35.6159 60.5537 35.8794 60.0486 36.119C59.6617 36.3157 59.3669 36.6556 59.2268 37.0664C59.0866 37.4771 59.1123 37.9263 59.2982 38.3185C59.4841 38.7106 59.8156 39.0148 60.2223 39.1663C60.629 39.3178 61.0787 39.3047 61.4759 39.1298C62.0818 38.8438 62.661 38.5045 63.2069 38.1162C63.2613 38.0779 63.3211 38.048 63.3843 38.0275L63.401 38.0243L63.4076 38.0243C63.8578 38.1455 64.3024 38.2822 64.7413 38.4344L67.0222 39.1982C68.7712 39.7881 70.0906 41.2014 70.5475 42.9382L71.4394 49.7751C71.6159 51.1198 70.9017 52.1211 69.8866 52.3535C68.9887 52.5585 68.0834 52.7296 67.1727 52.8664C66.7354 52.9339 66.3429 53.1722 66.0814 53.5291C65.8199 53.8859 65.7109 54.3321 65.7783 54.7693C65.8457 55.2066 66.0841 55.5991 66.441 55.8606C66.7978 56.1221 67.2439 56.2311 67.6812 56.1637C68.8204 55.9834 69.804 55.7963 70.6322 55.6025C73.6208 54.915 75.1022 52.0694 74.7461 49.3433L73.8256 42.3162L73.8063 42.2261C73.452 40.7961 72.7418 39.479 71.7416 38.3973C70.7415 37.3156 69.4839 36.5045 68.086 36.0395L65.8084 35.2723C65.3027 35.1027 64.7893 34.9465 64.2752 34.8041Z" fill="#8D744C"/>
<path d="M46.2721 40.078C47.4747 39.2937 49.1489 38.7329 50.8686 39.2292C51.3875 39.3798 51.9051 39.5426 52.4216 39.7176L55.6103 40.7916C57.4605 41.4078 59.1249 42.4819 60.4488 43.9139C61.7726 45.3459 62.7129 47.0893 63.1822 48.9822L63.2048 49.0724L64.4844 58.869C64.9478 62.4059 63.0305 66.0249 59.2439 66.8964C55.4038 67.7808 49.19 68.7007 40.0869 68.6322C30.9872 68.5637 24.7846 67.5503 20.9583 66.6081C17.1852 65.6797 15.3226 62.0322 15.8392 58.5027L17.2661 48.7265L17.2901 48.6367C17.7879 46.7511 18.7543 45.022 20.0995 43.6101C21.4448 42.1982 23.1252 41.1493 24.9845 40.561L28.1923 39.5352C28.7091 39.3679 29.2281 39.213 29.7492 39.0702C31.4761 38.5965 33.1417 39.1858 34.3324 39.9881C35.6027 40.8443 37.6948 41.9001 40.288 41.9196C42.8813 41.9392 44.9924 40.915 46.2721 40.078ZM49.9378 42.429C49.4655 42.2921 48.8046 42.4071 48.0944 42.8684C46.4965 43.9131 43.7428 45.2791 40.2629 45.2529C36.783 45.2267 34.0502 43.8194 32.4682 42.7508C31.7684 42.2788 31.106 42.1538 30.6317 42.2836C30.1529 42.4133 29.6785 42.5542 29.2085 42.7062L26.0006 43.7355C24.6917 44.1508 23.5068 44.8856 22.5531 45.8736C21.5993 46.8617 20.9067 48.0717 20.5379 49.3945L19.1356 58.9842C18.8194 61.1385 19.9493 62.9238 21.756 63.3707C25.3062 64.2475 31.2489 65.2322 40.112 65.299C48.9751 65.3657 54.932 64.4705 58.495 63.6473C60.3082 63.2276 61.4615 61.4596 61.1811 59.3008L59.9234 49.691C59.5745 48.3628 58.9002 47.1425 57.9614 46.1402C57.0227 45.138 55.849 44.3853 54.5465 43.9504L51.3545 42.8763C50.8868 42.7172 50.4145 42.5692 49.9378 42.4323" fill="#8D744C"/>
</svg>
