<svg width="32" height="32" viewBox="0 0 32 32" fill="none" xmlns="http://www.w3.org/2000/svg">
<path d="M20 25.5034C21.1106 25.8267 22.285 26 23.4999 26C25.4716 26 27.3367 25.5435 28.9952 24.7304C28.9983 24.654 28.9999 24.5772 28.9999 24.5C28.9999 21.4624 26.5375 19 23.4999 19C21.6092 19 19.9414 19.954 18.9514 21.4069M20 25.5034V25.5C20 24.0161 19.6198 22.6211 18.9514 21.4069M20 25.5034C20 25.5509 19.9996 25.5984 19.9988 25.6458C17.5165 27.1403 14.6086 28 11.5 28C8.39137 28 5.48352 27.1403 3.00123 25.6458C3.00041 25.5973 3 25.5487 3 25.5C3 20.8056 6.80558 17 11.5 17C14.7106 17 17.5054 18.78 18.9514 21.4069M16 8.5C16 10.9853 13.9853 13 11.5 13C9.01472 13 7 10.9853 7 8.5C7 6.01472 9.01472 4 11.5 4C13.9853 4 16 6.01472 16 8.5ZM27 11.5C27 13.433 25.433 15 23.5 15C21.567 15 20 13.433 20 11.5C20 9.567 21.567 8 23.5 8C25.433 8 27 9.567 27 11.5Z" stroke="#8D744C" stroke-width="1.65082" stroke-linecap="round" stroke-linejoin="round"/>
</svg>
