<svg width="44" height="44" viewBox="0 0 44 44" fill="none" xmlns="http://www.w3.org/2000/svg">
<rect width="44" height="44" rx="8" fill="#8D744C"/>
<path fill-rule="evenodd" clip-rule="evenodd" d="M25.6001 19.6C25.6001 21.5882 23.9884 23.2 22.0001 23.2C20.0119 23.2 18.4001 21.5882 18.4001 19.6C18.4001 17.6118 20.0119 16 22.0001 16C23.9884 16 25.6001 17.6118 25.6001 19.6ZM24.4001 19.6C24.4001 20.9255 23.3256 22 22.0001 22C20.6747 22 19.6001 20.9255 19.6001 19.6C19.6001 18.2745 20.6747 17.2 22.0001 17.2C23.3256 17.2 24.4001 18.2745 24.4001 19.6Z" fill="white"/>
<path d="M22.0001 25C18.1155 25 14.8057 27.297 13.5449 30.5152C13.8521 30.8202 14.1756 31.1087 14.5141 31.3792C15.453 28.4246 18.3982 26.2 22.0001 26.2C25.6021 26.2 28.5473 28.4246 29.4862 31.3792C29.8247 31.1087 30.1482 30.8202 30.4554 30.5152C29.1946 27.2971 25.8848 25 22.0001 25Z" fill="white"/>
</svg>
